<svg width="463" height="364" viewBox="0 0 463 364" fill="none" xmlns="http://www.w3.org/2000/svg">
<path d="M445.253 63.58V244.791C445.253 257.454 439.325 269.436 429.5 277.229C428.053 278.37 426.508 279.428 424.894 280.388L399.821 292.681L279.821 345.181L267.122 351.921L256.17 357.378C249.741 361.177 242.393 363.181 234.92 363.181C227.447 363.181 220.086 362.177 213.657 358.378L201.821 352.681L142.821 326.681L76.8206 298.681L62.8206 292.681L52.87 288.542L39.066 280.388C34.863 277.897 31.176 274.71 28.156 271.023C24.524 266.598 21.824 261.463 20.266 255.952C19.25 252.362 18.708 248.604 18.708 244.791V63.58C18.708 42.831 34.308 25.186 54.973 22.514L217.969 1.51501C222.589 0.917015 227.306 0.610962 231.982 0.610962C236.658 0.610962 241.375 0.917015 245.995 1.51501L408.991 22.514C429.653 25.187 445.253 42.832 445.253 63.58Z" fill="#F7F8F7"/>
<path fill-rule="evenodd" clip-rule="evenodd" d="M279.821 345.181L399.821 292.681L424.894 280.388C426.508 279.428 428.053 278.37 429.5 277.229C439.325 269.436 445.253 257.454 445.253 244.791V63.58C445.253 42.832 429.653 25.187 408.991 22.514L245.995 1.51501C241.375 0.917015 236.658 0.610962 231.982 0.610962C227.306 0.610962 222.589 0.917015 217.969 1.51501L54.973 22.514C34.308 25.186 18.708 42.831 18.708 63.58V244.791C18.708 248.604 19.25 252.362 20.266 255.952C21.824 261.463 24.524 266.598 28.156 271.023C31.176 274.71 34.863 277.897 39.066 280.388L52.87 288.542L62.8206 292.681L76.8206 298.681L142.821 326.681L201.821 352.681L213.657 358.378C220.086 362.177 227.447 363.181 234.92 363.181C242.393 363.181 249.741 361.177 256.17 357.378L267.122 351.921L279.821 345.181ZM263.92 345.695L276.773 338.873L396.876 286.328L421.548 274.233C422.819 273.464 424.029 272.628 425.156 271.74C433.336 265.249 438.253 255.274 438.253 244.791V63.58C438.253 46.3826 425.297 31.6838 408.097 29.4567C408.096 29.4566 408.096 29.4565 408.095 29.4565C408.094 29.4564 408.094 29.4563 408.093 29.4562L245.096 8.4571C240.773 7.89748 236.356 7.61096 231.982 7.61096C227.608 7.61096 223.191 7.89748 218.868 8.4571L55.8707 29.4562C55.8696 29.4564 55.8685 29.4565 55.8675 29.4567C38.6636 31.6828 25.708 46.3816 25.708 63.58V244.791C25.708 247.941 26.156 251.058 27.0015 254.046L27.002 254.048C28.2942 258.619 30.5384 262.892 33.5668 266.582L33.5713 266.587C36.0749 269.644 39.1366 272.292 42.6308 274.364C42.6322 274.365 42.6336 274.365 42.635 274.366L56.0092 282.266L65.5435 286.232L79.5545 292.236L79.5781 292.247L145.599 320.255L204.751 346.322L216.961 352.199L217.218 352.351C222.081 355.225 227.976 356.181 234.92 356.181C241.143 356.181 247.261 354.511 252.608 351.351L252.824 351.224L263.92 345.695Z" fill="#1A1B17"/>
<path fill-rule="evenodd" clip-rule="evenodd" d="M428.165 60.3197C424.042 48.7894 414.347 39.6752 402.081 36.3001L245.891 181.24C245.218 180.515 244.494 179.841 243.716 179.229L362.24 30.851L328.758 26.6083L241.322 177.619C240.536 177.174 239.713 176.789 238.863 176.458L299.271 22.8718L271.949 19.4095L236.342 175.675C235.445 175.464 234.526 175.312 233.584 175.233L245.431 16.0493L245.098 16.0071C240.804 15.4604 236.419 15.1805 232.072 15.1805C227.726 15.1805 223.341 15.4604 219.046 16.0071L218.751 16.0445L230.413 175.231C229.465 175.309 228.54 175.459 227.636 175.67L192.237 19.4043L164.909 22.8673L225.112 176.452C224.261 176.782 223.438 177.166 222.652 177.61L135.413 26.6049L101.983 30.8411L220.306 179.183C219.507 179.807 218.764 180.493 218.075 181.234L62.1463 36.2769C49.878 39.6223 40.1709 48.705 36.0159 60.2102L216.231 183.521C215.709 184.293 215.261 185.117 214.855 185.964L33.8208 98.4198V132.774L213.858 188.436C213.591 189.282 213.401 190.16 213.254 191.053L33.8208 164.046V193.884L212.984 194.074C212.984 194.087 212.983 194.1 212.982 194.113C212.981 194.126 212.98 194.139 212.98 194.152C212.98 195.159 213.081 196.141 213.232 197.106L33.8208 223.708V238.436C33.8208 241.922 34.3246 245.358 35.269 248.641C35.7873 250.444 36.4415 252.203 37.2227 253.904L213.816 199.733C214.08 200.595 214.42 201.421 214.799 202.226L61.3874 276.004L65.5765 278.438L74.8262 282.222L87.8401 287.708L91.8415 289.377L216.159 204.667C216.708 205.491 217.331 206.259 217.998 206.986L117.475 300.074L139.821 309.398L220.183 209.03C220.934 209.626 221.731 210.164 222.568 210.643L160.21 318.084L179.769 326.562L225.041 211.826C225.86 212.148 226.706 212.411 227.575 212.618L199.521 335.124L204.035 337.08L215.038 342.289C216.755 343.288 218.545 344.075 220.388 344.69L230.323 213.068C230.87 213.116 231.421 213.152 231.98 213.152C232.504 213.152 233.019 213.115 233.532 213.074L243.113 345.797C247.127 344.933 250.993 343.446 254.556 341.375L264.295 336.602L236.377 212.62C237.228 212.418 238.057 212.16 238.859 211.848L283.882 327.064L303.533 318.608L241.337 210.676C242.18 210.197 242.982 209.655 243.739 209.058L323.916 309.836L346.044 300.314L245.909 207.043C246.581 206.318 247.21 205.553 247.763 204.729L371.294 289.449L388.089 282.222L401.103 275.946L249.152 202.243C249.527 201.449 249.867 200.636 250.13 199.786L426.605 254.566C429.009 249.586 430.321 244.085 430.321 238.436V224.401L250.716 197.182C250.857 196.302 250.947 195.406 250.963 194.491L430.321 194.475V164.243L250.708 191.07C250.562 190.175 250.373 189.296 250.106 188.448L430.321 132.96V98.5853L249.106 185.967C248.701 185.122 248.256 184.301 247.736 183.531L428.165 60.3197Z" fill="#F5DE9E" fill-opacity="0.5"/>
<path d="M100.661 255.519L94.4804 242.996L88.2997 255.519L74.4805 257.527L84.4814 267.274L82.1191 281.039L94.4804 274.541L106.842 281.039L104.48 267.274L114.48 257.527L100.661 255.519Z" fill="#E7B726"/>
<path d="M162.206 258.649L154.48 242.996L146.755 258.649L129.48 261.16L141.982 273.343L139.029 290.549L154.48 282.427L169.932 290.549L166.979 273.343L179.48 261.16L162.206 258.649Z" fill="#E7B726"/>
<path d="M243.569 266.476L231.98 242.996L220.392 266.476L194.48 270.241L213.232 288.517L208.803 314.326L231.98 302.142L255.158 314.326L250.729 288.517L269.48 270.241L243.569 266.476Z" fill="#E7B726"/>
<path d="M317.206 258.649L309.48 242.996L301.755 258.649L284.48 261.16L296.982 273.343L294.029 290.549L309.48 282.427L324.932 290.549L321.979 273.343L334.48 261.16L317.206 258.649Z" fill="#E7B726"/>
<path d="M375.661 255.519L369.48 242.996L363.3 255.519L349.48 257.527L359.481 267.274L357.119 281.039L369.48 274.541L381.842 281.039L379.48 267.274L389.48 257.527L375.661 255.519Z" fill="#E7B726"/>
<path d="M0.980469 114.317C0.980469 105.48 8.14391 98.3168 16.9805 98.3168H446.98C455.817 98.3168 462.98 105.48 462.98 114.317V212.317C462.98 221.153 455.817 228.317 446.98 228.317H16.9805C8.14391 228.317 0.980469 221.153 0.980469 212.317V114.317Z" fill="#AF1B17"/>
<path fill-rule="evenodd" clip-rule="evenodd" d="M446.98 104.317H16.9805C11.4576 104.317 6.98047 108.794 6.98047 114.317V212.317C6.98047 217.84 11.4576 222.317 16.9805 222.317H446.98C452.503 222.317 456.98 217.84 456.98 212.317V114.317C456.98 108.794 452.503 104.317 446.98 104.317ZM16.9805 98.3168C8.14391 98.3168 0.980469 105.48 0.980469 114.317V212.317C0.980469 221.153 8.14391 228.317 16.9805 228.317H446.98C455.817 228.317 462.98 221.153 462.98 212.317V114.317C462.98 105.48 455.817 98.3168 446.98 98.3168H16.9805Z" fill="#1A1B17"/>
<path d="M44.7084 130.517H95.7804C96.3964 130.517 96.9284 130.741 97.3764 131.189C97.8244 131.637 98.0484 132.169 98.0484 132.785V187.049C98.0484 187.665 97.8244 188.197 97.3764 188.645C96.9284 189.093 96.3964 189.317 95.7804 189.317H79.3164C78.7004 189.317 78.1684 189.093 77.7204 188.645C77.2724 188.197 77.0484 187.665 77.0484 187.049V148.997H63.4404V187.049C63.4404 187.665 63.2164 188.197 62.7684 188.645C62.3204 189.093 61.7884 189.317 61.1724 189.317H44.7084C44.0924 189.317 43.5604 189.121 43.1124 188.729C42.6644 188.281 42.4404 187.721 42.4404 187.049V132.785C42.4404 132.169 42.6644 131.637 43.1124 131.189C43.5604 130.741 44.0924 130.517 44.7084 130.517Z" fill="#F7F8F7"/>
<path d="M129.128 172.937H155C155.616 172.937 156.148 173.161 156.596 173.609C157.044 174.057 157.268 174.589 157.268 175.205V187.049C157.268 187.665 157.044 188.197 156.596 188.645C156.148 189.093 155.616 189.317 155 189.317H111.236C110.62 189.317 110.088 189.093 109.64 188.645C109.192 188.197 108.968 187.665 108.968 187.049V132.785C108.968 132.169 109.192 131.637 109.64 131.189C110.088 130.741 110.62 130.517 111.236 130.517H154.328C154.944 130.517 155.476 130.741 155.924 131.189C156.372 131.637 156.596 132.169 156.596 132.785V144.629C156.596 145.245 156.372 145.777 155.924 146.225C155.476 146.673 154.944 146.897 154.328 146.897H129.128V152.189H152.48C153.096 152.189 153.628 152.413 154.076 152.861C154.524 153.309 154.748 153.841 154.748 154.457V165.377C154.748 165.993 154.524 166.525 154.076 166.973C153.628 167.421 153.096 167.645 152.48 167.645H129.128V172.937Z" fill="#F7F8F7"/>
<path d="M167.702 130.517H216.926C217.542 130.517 218.074 130.741 218.522 131.189C218.97 131.637 219.194 132.169 219.194 132.785V146.309C219.194 146.925 218.97 147.457 218.522 147.905C218.074 148.353 217.542 148.577 216.926 148.577H202.982V187.049C202.982 187.665 202.758 188.197 202.31 188.645C201.862 189.093 201.33 189.317 200.714 189.317H183.914C183.298 189.317 182.766 189.093 182.318 188.645C181.87 188.197 181.646 187.665 181.646 187.049V148.577H167.702C167.086 148.577 166.554 148.353 166.106 147.905C165.658 147.457 165.434 146.925 165.434 146.309V132.785C165.434 132.169 165.658 131.637 166.106 131.189C166.554 130.741 167.086 130.517 167.702 130.517Z" fill="#F7F8F7"/>
<path d="M229.458 130.517H244.662C245.278 130.517 245.81 130.741 246.258 131.189C246.706 131.637 246.93 132.169 246.93 132.785V155.717L261.126 132.449C261.854 131.161 263.002 130.517 264.57 130.517H277.842C278.458 130.517 278.99 130.741 279.438 131.189C279.886 131.637 280.11 132.169 280.11 132.785V187.049C280.11 187.665 279.886 188.197 279.438 188.645C278.99 189.093 278.458 189.317 277.842 189.317H262.638C262.022 189.317 261.49 189.093 261.042 188.645C260.594 188.197 260.37 187.665 260.37 187.049V165.965L246.174 187.385C245.334 188.673 244.186 189.317 242.73 189.317H229.458C228.842 189.317 228.31 189.093 227.862 188.645C227.414 188.197 227.19 187.665 227.19 187.049V132.785C227.19 132.169 227.414 131.637 227.862 131.189C228.31 130.741 228.842 130.517 229.458 130.517Z" fill="#F7F8F7"/>
<path d="M313.011 170.837H321.579V132.785C321.579 132.169 321.803 131.637 322.251 131.189C322.699 130.741 323.231 130.517 323.847 130.517H340.311C340.927 130.517 341.459 130.741 341.907 131.189C342.355 131.637 342.579 132.169 342.579 132.785V170.837H348.795C349.411 170.837 349.943 171.061 350.391 171.509C350.839 171.957 351.063 172.489 351.063 173.105V197.465C351.063 198.081 350.839 198.613 350.391 199.061C349.943 199.509 349.411 199.733 348.795 199.733H336.111C335.495 199.733 334.963 199.509 334.515 199.061C334.067 198.613 333.843 198.081 333.843 197.465V189.317H294.279C293.663 189.317 293.131 189.093 292.683 188.645C292.235 188.197 292.011 187.665 292.011 187.049V132.785C292.011 132.113 292.235 131.581 292.683 131.189C293.131 130.741 293.663 130.517 294.279 130.517H310.743C311.359 130.517 311.891 130.741 312.339 131.189C312.787 131.637 313.011 132.169 313.011 132.785V170.837Z" fill="#F7F8F7"/>
<path d="M381.606 130.517H399.834C401.85 130.517 403.11 131.441 403.614 133.289L422.346 186.881C422.402 187.049 422.43 187.329 422.43 187.721C422.43 188.057 422.234 188.421 421.842 188.813C421.506 189.149 421.086 189.317 420.582 189.317H405.042C403.362 189.317 402.27 188.617 401.766 187.217L399.75 181.673H381.69L379.674 187.217C379.17 188.617 378.078 189.317 376.398 189.317H360.858C360.354 189.317 359.906 189.149 359.514 188.813C359.178 188.421 359.01 188.057 359.01 187.721C359.01 187.329 359.038 187.049 359.094 186.881L377.826 133.289C378.33 131.441 379.59 130.517 381.606 130.517ZM385.974 165.293H395.466L390.678 149.669L385.974 165.293Z" fill="#F7F8F7"/>
<path d="M132.8 79.7962C129.72 79.7962 127.34 78.9762 125.66 77.3362C124.02 75.6562 123.2 73.0962 123.2 69.6562C123.2 66.5362 123.84 63.5562 125.12 60.7162C126.44 57.8762 128.34 55.5762 130.82 53.8162C133.3 52.0562 136.22 51.1762 139.58 51.1762L140.6 51.2362C139.96 50.4762 138.98 49.4362 137.66 48.1162C136.18 46.6762 135.08 45.4562 134.36 44.4562C133.64 43.4162 133.28 42.2762 133.28 41.0362C133.28 39.5162 133.8 38.3962 134.84 37.6762C135.88 36.9562 137.52 36.5962 139.76 36.5962H150.74C151.78 36.5962 152.54 36.5362 153.02 36.4162C153.5 36.2962 153.88 36.0562 154.16 35.6962C154.44 35.2962 154.7 34.6362 154.94 33.7162H157.58C156.94 36.8362 156.24 39.1562 155.48 40.6762C154.72 42.1962 153.72 43.2362 152.48 43.7962C151.28 44.3562 149.6 44.6362 147.44 44.6362H141.68C141.44 44.6362 141.24 44.6962 141.08 44.8162C140.96 44.8962 140.9 45.0762 140.9 45.3562C140.9 45.5162 141.24 46.0362 141.92 46.9162C143.4 48.7162 144.66 50.6562 145.7 52.7362C146.74 54.8162 147.26 57.2562 147.26 60.0562C147.26 63.0962 146.66 66.1562 145.46 69.2362C144.3 72.2762 142.62 74.7962 140.42 76.7962C138.22 78.7962 135.68 79.7962 132.8 79.7962ZM135.08 74.3962C136.72 74.3962 138.08 73.3962 139.16 71.3962C140.24 69.3962 141.02 67.1362 141.5 64.6162C142.02 62.0962 142.28 60.1562 142.28 58.7962C142.28 57.2762 142.1 56.2362 141.74 55.6762C141.38 55.1162 140.8 54.8362 140 54.8362C138.24 54.8362 136.76 55.7962 135.56 57.7162C134.36 59.6362 133.46 61.8162 132.86 64.2562C132.26 66.6962 131.96 68.5962 131.96 69.9562C131.96 71.6762 132.18 72.8562 132.62 73.4962C133.1 74.0962 133.92 74.3962 135.08 74.3962Z" fill="black"/>
<path d="M155.161 79.9162C152.881 79.9162 150.981 79.1362 149.461 77.5762C147.941 76.0162 147.181 73.5762 147.181 70.2562C147.181 67.2962 147.761 64.1962 148.921 60.9562C150.121 57.6762 151.881 54.9162 154.201 52.6762C156.561 50.3962 159.361 49.2562 162.601 49.2562C164.241 49.2562 165.461 49.5362 166.261 50.0962C167.061 50.6562 167.461 51.3962 167.461 52.3162V52.7362L168.121 49.5562H176.761L172.441 69.9562C172.281 70.5562 172.201 71.1962 172.201 71.8762C172.201 73.5962 173.021 74.4562 174.661 74.4562C175.781 74.4562 176.741 73.9362 177.541 72.8962C178.381 71.8562 179.041 70.4962 179.521 68.8162H182.041C180.561 73.1362 178.721 76.0762 176.521 77.6362C174.361 79.1562 172.181 79.9162 169.981 79.9162C168.301 79.9162 166.941 79.4562 165.901 78.5362C164.901 77.5762 164.301 76.1962 164.101 74.3962C162.941 76.0362 161.641 77.3762 160.201 78.4162C158.801 79.4162 157.121 79.9162 155.161 79.9162ZM159.061 74.0962C160.061 74.0962 161.041 73.6362 162.001 72.7162C163.001 71.7562 163.681 70.4562 164.041 68.8162L166.921 55.2562C166.921 54.7362 166.721 54.2362 166.321 53.7562C165.921 53.2362 165.301 52.9762 164.461 52.9762C162.861 52.9762 161.421 53.9162 160.141 55.7962C158.861 57.6362 157.861 59.8762 157.141 62.5162C156.421 65.1162 156.061 67.4162 156.061 69.4162C156.061 71.4162 156.341 72.6962 156.901 73.2562C157.501 73.8162 158.221 74.0962 159.061 74.0962Z" fill="black"/>
<path d="M203.243 79.9162C200.523 79.9162 198.363 79.2362 196.763 77.8762C195.203 76.5162 194.423 74.6362 194.423 72.2362C194.423 71.0362 194.563 69.8962 194.843 68.8162L195.623 65.1562H188.963L185.903 79.5562H177.263L183.623 49.5562H192.263L189.683 61.5562H196.463L199.103 49.5562H207.143L205.043 59.2762C206.323 58.7562 207.383 58.4362 208.223 58.3162C209.103 58.1562 210.043 58.0762 211.043 58.0762C213.443 58.0762 215.323 58.7762 216.683 60.1762C218.083 61.5762 218.783 63.5362 218.783 66.0562C218.783 67.9762 218.223 70.0162 217.103 72.1762C216.023 74.2962 214.303 76.1162 211.943 77.6362C209.623 79.1562 206.723 79.9162 203.243 79.9162ZM205.043 74.8162C206.043 74.8162 206.983 74.3762 207.863 73.4962C208.783 72.6162 209.523 71.5162 210.083 70.1962C210.643 68.8762 210.923 67.6162 210.923 66.4162C210.923 65.2162 210.643 64.2762 210.083 63.5962C209.523 62.8762 208.723 62.5162 207.683 62.5162C207.243 62.5162 206.623 62.6362 205.823 62.8762C205.063 63.1162 204.503 63.3562 204.143 63.5962L202.643 70.6762C202.523 70.9962 202.463 71.5562 202.463 72.3562C202.463 73.9962 203.323 74.8162 205.043 74.8162Z" fill="black"/>
<path d="M224.144 79.9162C222.224 79.9162 220.664 79.3162 219.464 78.1162C218.304 76.9162 217.724 75.1162 217.724 72.7162C217.724 71.7162 217.884 70.4162 218.204 68.8162L222.284 49.5562H230.924L226.604 69.9562C226.484 70.5562 226.424 71.1162 226.424 71.6362C226.424 73.2762 227.024 74.0962 228.224 74.0962C229.344 74.0962 230.304 73.6362 231.104 72.7162C231.904 71.7562 232.544 70.4562 233.024 68.8162L237.104 49.5562H245.744L241.424 69.9562C241.264 70.5562 241.184 71.1962 241.184 71.8762C241.184 72.6762 241.364 73.2562 241.724 73.6162C242.124 73.9362 242.764 74.0962 243.644 74.0962C245.444 74.0962 246.804 72.8762 247.724 70.4362C248.684 67.9562 249.504 64.8762 250.184 61.1962L250.544 59.3362L252.584 49.5562H261.224L258.884 60.7162C258.764 61.3162 258.704 61.8762 258.704 62.3962C258.704 64.0362 259.304 64.8562 260.504 64.8562C261.664 64.8562 262.664 64.3762 263.504 63.4162C264.384 62.4562 264.984 61.1762 265.304 59.5762L267.404 49.5562H276.044L271.724 69.9562C271.564 70.5562 271.484 71.1962 271.484 71.8762C271.484 72.6762 271.664 73.2562 272.024 73.6162C272.424 73.9362 273.064 74.0962 273.944 74.0962C275.064 74.0962 276.024 73.6162 276.824 72.6562C277.664 71.6962 278.324 70.4162 278.804 68.8162H281.324C279.844 73.1362 278.004 76.0762 275.804 77.6362C273.644 79.1562 271.464 79.9162 269.264 79.9162C267.344 79.9162 265.784 79.3162 264.584 78.1162C263.424 76.9162 262.844 75.1162 262.844 72.7162C262.844 71.7162 263.004 70.4162 263.324 68.8162L263.624 67.3162C262.464 68.5962 261.284 69.4762 260.084 69.9562C258.884 70.4362 257.664 70.6762 256.424 70.6762C254.064 70.6762 252.324 69.8362 251.204 68.1562C250.084 71.7162 248.504 74.5762 246.464 76.7362C244.464 78.8562 241.964 79.9162 238.964 79.9162C237.244 79.9162 235.864 79.4362 234.824 78.4762C233.824 77.5162 233.224 76.0962 233.024 74.2162C231.664 76.4162 230.224 77.9162 228.704 78.7162C227.224 79.5162 225.704 79.9162 224.144 79.9162Z" fill="black"/>
<path d="M301.65 79.9162C299.25 79.9162 297.43 79.3362 296.19 78.1762C294.99 76.9762 294.39 75.3362 294.39 73.2562C294.39 72.6962 294.53 71.5762 294.81 69.8962C295.01 68.8962 295.11 68.1162 295.11 67.5562C295.11 65.6362 294.35 64.6762 292.83 64.6762C292.31 64.6762 291.81 64.8362 291.33 65.1562C290.89 65.4362 290.11 66.0162 288.99 66.8962L286.35 79.5562H277.71L284.13 49.5562H292.77L290.19 61.4362C292.91 58.2362 295.07 55.7962 296.67 54.1162C298.27 52.4362 299.73 51.1762 301.05 50.3362C302.41 49.4562 303.73 49.0162 305.01 49.0162C307.49 49.0162 308.73 50.3362 308.73 52.9762C308.73 54.1762 308.39 55.1362 307.71 55.8562C307.07 56.5362 306.15 56.8762 304.95 56.8762C303.83 56.8762 302.99 56.5762 302.43 55.9762C301.87 55.3362 301.61 54.6162 301.65 53.8162C300.89 54.2962 300.21 54.8362 299.61 55.4362C299.01 56.0362 298.35 56.8162 297.63 57.7762C296.79 58.8962 295.97 59.8562 295.17 60.6562C295.97 60.4962 296.81 60.4162 297.69 60.4162C299.77 60.4162 301.23 60.8762 302.07 61.7962C302.95 62.7162 303.39 64.1162 303.39 65.9962C303.39 66.5562 303.27 67.4762 303.03 68.7562C302.79 70.1162 302.67 71.1562 302.67 71.8762C302.67 73.3562 303.47 74.0962 305.07 74.0962C306.19 74.0962 307.07 73.7162 307.71 72.9562C308.39 72.1962 309.17 70.8162 310.05 68.8162H312.57C310.05 76.2162 306.41 79.9162 301.65 79.9162Z" fill="black"/>
<path d="M318.448 79.9162C316.168 79.9162 314.268 79.1362 312.748 77.5762C311.228 76.0162 310.468 73.5762 310.468 70.2562C310.468 67.2962 311.048 64.1962 312.208 60.9562C313.408 57.6762 315.168 54.9162 317.488 52.6762C319.848 50.3962 322.648 49.2562 325.888 49.2562C327.528 49.2562 328.748 49.5362 329.548 50.0962C330.348 50.6562 330.748 51.3962 330.748 52.3162V52.7362L331.408 49.5562H340.048L335.728 69.9562C335.568 70.5562 335.488 71.1962 335.488 71.8762C335.488 72.6762 335.668 73.2562 336.028 73.6162C336.428 73.9362 337.068 74.0962 337.948 74.0962C338.508 74.0962 338.948 74.0162 339.268 73.8562C338.388 76.0962 337.548 77.6762 336.748 78.5962C335.948 79.4762 334.788 79.9162 333.268 79.9162C331.628 79.9162 330.288 79.4362 329.248 78.4762C328.248 77.4762 327.628 76.0962 327.388 74.3362C324.948 78.0562 321.968 79.9162 318.448 79.9162ZM322.348 74.0962C323.348 74.0962 324.328 73.6362 325.288 72.7162C326.288 71.7562 326.968 70.4562 327.328 68.8162L330.208 55.2562C330.208 54.7362 330.008 54.2362 329.608 53.7562C329.208 53.2362 328.588 52.9762 327.748 52.9762C326.148 52.9762 324.708 53.9162 323.428 55.7962C322.148 57.6362 321.148 59.8762 320.428 62.5162C319.708 65.1162 319.348 67.4162 319.348 69.4162C319.348 71.4162 319.628 72.6962 320.188 73.2562C320.788 73.8162 321.508 74.0962 322.348 74.0962Z" fill="black"/>
</svg>
