<svg width="230" height="181" viewBox="0 0 230 181" fill="none" xmlns="http://www.w3.org/2000/svg">
<path d="M221.175 31.3482V121.561C221.175 127.866 218.224 133.831 213.332 137.71C212.612 138.278 211.843 138.805 211.039 139.283L198.557 145.403L138.817 171.539L132.495 174.894L127.042 177.611C123.842 179.502 120.184 180.5 116.463 180.5C112.743 180.5 109.078 180 105.878 178.109L99.9854 175.273L70.6131 162.329L37.756 148.39L30.7863 145.403L25.8325 143.342L18.9604 139.283C16.868 138.043 15.0325 136.456 13.529 134.621C11.7208 132.418 10.3767 129.861 9.60106 127.118C9.09526 125.331 8.82544 123.46 8.82544 121.561V31.3482C8.82544 21.0186 16.5917 12.2343 26.8795 10.9041L108.025 0.45007C110.325 0.152364 112.673 0 115.001 0C117.329 0 119.677 0.152364 121.977 0.45007L203.122 10.9041C213.408 12.2348 221.175 21.0191 221.175 31.3482Z" fill="#F7F8F7"/>
<path fill-rule="evenodd" clip-rule="evenodd" d="M138.817 171.539L198.557 145.403L211.039 139.283C211.843 138.805 212.612 138.278 213.332 137.71C218.224 133.831 221.175 127.866 221.175 121.561V31.3482C221.175 21.0191 213.408 12.2348 203.122 10.9041L121.977 0.45007C119.677 0.152364 117.329 0 115.001 0C112.673 0 110.325 0.152364 108.025 0.45007L26.8795 10.9041C16.5917 12.2343 8.82544 21.0186 8.82544 31.3482V121.561C8.82544 123.46 9.09526 125.331 9.60106 127.118C10.3767 129.861 11.7208 132.418 13.529 134.621C15.0325 136.456 16.868 138.043 18.9604 139.283L25.8325 143.342L30.7863 145.403L37.756 148.39L70.6131 162.329L99.9854 175.273L105.878 178.109C109.078 180 112.743 180.5 116.463 180.5C120.184 180.5 123.842 179.502 127.042 177.611L132.495 174.894L138.817 171.539ZM130.901 171.795L137.299 168.399L197.091 142.24L209.373 136.219C210.006 135.836 210.609 135.42 211.17 134.978C215.242 131.746 217.69 126.78 217.69 121.561V31.3482C217.69 22.7867 211.24 15.4691 202.677 14.3604C202.677 14.3604 202.676 14.3603 202.676 14.3603C202.676 14.3603 202.675 14.3602 202.675 14.3602L121.53 3.90609C119.377 3.62749 117.178 3.48485 115.001 3.48485C112.823 3.48485 110.624 3.62749 108.472 3.90609L27.3263 14.3602C27.3258 14.3603 27.3253 14.3603 27.3247 14.3604C18.76 15.4686 12.3103 22.7862 12.3103 31.3482V121.561C12.3103 123.13 12.5333 124.682 12.9542 126.169L12.9545 126.17C13.5978 128.445 14.715 130.573 16.2227 132.41L16.2249 132.412C17.4713 133.934 18.9955 135.253 20.735 136.284C20.7357 136.284 20.7364 136.285 20.7372 136.285L27.3953 140.218L32.1418 142.192L39.117 145.182L39.1287 145.187L71.9963 159.13L101.444 172.107L107.523 175.033L107.651 175.109C110.072 176.539 113.006 177.015 116.463 177.015C119.562 177.015 122.607 176.184 125.269 174.611L125.377 174.548L130.901 171.795Z" fill="#1A1B17"/>
<path fill-rule="evenodd" clip-rule="evenodd" d="M212.668 29.7251C210.615 23.9849 205.789 19.4475 199.682 17.7673L121.925 89.9235C121.59 89.5626 121.23 89.2271 120.843 88.9224L179.848 15.0545L163.179 12.9423L119.651 88.1209C119.259 87.8993 118.85 87.7077 118.427 87.5429L148.5 11.0821L134.898 9.35851L117.172 87.1531C116.725 87.048 116.267 86.9724 115.799 86.933L121.696 7.68566L121.53 7.66468C119.393 7.39248 117.21 7.25317 115.046 7.25317C112.882 7.25317 110.699 7.39248 108.561 7.66468L108.414 7.68328L114.22 86.932C113.748 86.9709 113.287 87.0455 112.837 87.1506L95.2145 9.3559L81.6094 11.0799L111.581 87.5399C111.157 87.7042 110.747 87.8953 110.356 88.1164L66.9254 12.9406L50.2824 15.0496L109.188 88.8995C108.791 89.2101 108.421 89.5517 108.078 89.9205L30.4505 17.7557C24.3429 19.4212 19.5103 23.9429 17.4419 29.6706L107.16 91.0591C106.9 91.4434 106.677 91.8536 106.475 92.2753L16.3491 48.6927V65.7956L105.978 93.506C105.845 93.9271 105.751 94.3642 105.678 94.8088L16.3491 81.3636V96.2182L105.543 96.3128C105.543 96.3192 105.543 96.3257 105.542 96.3322C105.542 96.3386 105.541 96.3451 105.541 96.3516C105.541 96.8529 105.591 97.3418 105.667 97.8222L16.3491 111.065V118.398C16.3491 120.133 16.5999 121.844 17.0701 123.478C17.3281 124.376 17.6538 125.251 18.0428 126.098L105.957 99.13C106.089 99.5591 106.258 99.9704 106.447 100.371L30.0728 137.1L32.1582 138.312L36.7631 140.196L43.2418 142.927L45.234 143.758L107.124 101.586C107.397 101.997 107.707 102.379 108.039 102.741L57.9954 149.083L69.1197 153.725L109.127 103.758C109.501 104.055 109.898 104.323 110.314 104.561L79.2703 158.049L89.0075 162.27L111.546 105.15C111.953 105.311 112.374 105.442 112.807 105.545L98.8407 166.532L101.088 167.506L106.565 170.099C107.42 170.596 108.311 170.988 109.229 171.295L114.175 105.769C114.447 105.793 114.722 105.81 115 105.81C115.261 105.81 115.517 105.792 115.773 105.772L120.542 171.846C122.54 171.416 124.465 170.675 126.239 169.644L131.087 167.268L117.189 105.546C117.613 105.445 118.025 105.317 118.425 105.161L140.839 162.52L150.621 158.31L119.658 104.578C120.078 104.339 120.477 104.07 120.854 103.772L160.769 153.943L171.785 149.203L121.934 102.769C122.269 102.408 122.582 102.027 122.857 101.617L184.355 143.794L192.716 140.196L199.195 137.072L123.549 100.38C123.736 99.9843 123.905 99.5796 124.036 99.1564L211.891 126.428C213.088 123.948 213.741 121.21 213.741 118.398V111.411L124.327 97.86C124.398 97.4219 124.442 96.9759 124.45 96.5204L213.741 96.5122V81.4618L124.323 94.8173C124.251 94.3717 124.157 93.9341 124.024 93.5119L213.741 65.888V48.7751L123.526 92.2768C123.324 91.8561 123.103 91.4474 122.844 91.0641L212.668 29.7251Z" fill="#F5DE9E" fill-opacity="0.5"/>
<path fill-rule="evenodd" clip-rule="evenodd" d="M49.6246 126.902L46.5476 120.668L43.4707 126.902L36.5909 127.902L41.5697 132.754L40.3937 139.607L46.5476 136.372L52.7016 139.607L51.5256 132.754L56.5044 127.902L49.6246 126.902ZM80.264 128.461L76.4177 120.668L72.5715 128.461L63.9719 129.71L70.1954 135.776L68.7254 144.342L76.4177 140.298L84.1101 144.342L82.6401 135.776L88.8636 129.71L80.264 128.461ZM115 120.668L120.769 132.357L133.669 134.232L124.334 143.33L126.539 156.178L115 150.113L103.461 156.178L105.666 143.33L96.3312 134.232L109.231 132.357L115 120.668ZM157.428 128.461L153.582 120.668L149.736 128.461L141.136 129.71L147.36 135.776L145.89 144.342L153.582 140.298L161.275 144.342L159.805 135.776L166.028 129.71L157.428 128.461ZM183.452 120.668L186.529 126.902L193.409 127.902L188.43 132.754L189.606 139.607L183.452 136.372L177.298 139.607L178.474 132.754L173.496 127.902L180.375 126.902L183.452 120.668Z" fill="#E7B726"/>
<path d="M0 56.6067C0 52.2076 3.56622 48.6414 7.96537 48.6414H222.035C226.434 48.6414 230 52.2076 230 56.6067V105.395C230 109.794 226.434 113.36 222.035 113.36H7.96537C3.56621 113.36 0 109.794 0 105.395V56.6067Z" fill="#AF1B17"/>
<path fill-rule="evenodd" clip-rule="evenodd" d="M222.035 51.6284H7.96537C5.2159 51.6284 2.98701 53.8573 2.98701 56.6067V105.395C2.98701 108.144 5.2159 110.373 7.96537 110.373H222.035C224.784 110.373 227.013 108.144 227.013 105.395V56.6067C227.013 53.8573 224.784 51.6284 222.035 51.6284ZM7.96537 48.6414C3.56622 48.6414 0 52.2076 0 56.6067V105.395C0 109.794 3.56621 113.36 7.96537 113.36H222.035C226.434 113.36 230 109.794 230 105.395V56.6067C230 52.2076 226.434 48.6414 222.035 48.6414H7.96537Z" fill="#1A1B17"/>
<path d="M21.7693 64.6716H47.1948C47.5015 64.6716 47.7663 64.7831 47.9894 65.0062C48.2124 65.2292 48.3239 65.4941 48.3239 65.8007V92.8153C48.3239 93.1219 48.2124 93.3868 47.9894 93.6098C47.7663 93.8328 47.5015 93.9444 47.1948 93.9444H38.9984C38.6918 93.9444 38.4269 93.8328 38.2039 93.6098C37.9809 93.3868 37.8694 93.1219 37.8694 92.8153V73.8716H31.0948V92.8153C31.0948 93.1219 30.9833 93.3868 30.7603 93.6098C30.5372 93.8328 30.2724 93.9444 29.9657 93.9444H21.7693C21.4627 93.9444 21.1978 93.8468 20.9748 93.6516C20.7518 93.4286 20.6403 93.1498 20.6403 92.8153V65.8007C20.6403 65.4941 20.7518 65.2292 20.9748 65.0062C21.1978 64.7831 21.4627 64.6716 21.7693 64.6716Z" fill="#F7F8F7"/>
<path d="M63.7963 85.7898H76.6763C76.983 85.7898 77.2478 85.9013 77.4708 86.1244C77.6939 86.3474 77.8054 86.6122 77.8054 86.9189V92.8153C77.8054 93.1219 77.6939 93.3868 77.4708 93.6098C77.2478 93.8328 76.983 93.9444 76.6763 93.9444H54.889C54.5824 93.9444 54.3175 93.8328 54.0945 93.6098C53.8714 93.3868 53.7599 93.1219 53.7599 92.8153V65.8007C53.7599 65.4941 53.8714 65.2292 54.0945 65.0062C54.3175 64.7831 54.5824 64.6716 54.889 64.6716H76.3417C76.6484 64.6716 76.9133 64.7831 77.1363 65.0062C77.3593 65.2292 77.4708 65.4941 77.4708 65.8007V71.6971C77.4708 72.0038 77.3593 72.2686 77.1363 72.4916C76.9133 72.7147 76.6484 72.8262 76.3417 72.8262H63.7963V75.4607H75.4217C75.7284 75.4607 75.9933 75.5722 76.2163 75.7953C76.4393 76.0183 76.5508 76.2831 76.5508 76.5898V82.0262C76.5508 82.3328 76.4393 82.5977 76.2163 82.8207C75.9933 83.0438 75.7284 83.1553 75.4217 83.1553H63.7963V85.7898Z" fill="#F7F8F7"/>
<path d="M82.9999 64.6716H107.505C107.812 64.6716 108.077 64.7831 108.3 65.0062C108.523 65.2292 108.634 65.4941 108.634 65.8007V72.5334C108.634 72.8401 108.523 73.105 108.3 73.328C108.077 73.551 107.812 73.6625 107.505 73.6625H100.564V92.8153C100.564 93.1219 100.452 93.3868 100.229 93.6098C100.006 93.8328 99.7411 93.9444 99.4345 93.9444H91.0708C90.7642 93.9444 90.4993 93.8328 90.2763 93.6098C90.0533 93.3868 89.9417 93.1219 89.9417 92.8153V73.6625H82.9999C82.6933 73.6625 82.4284 73.551 82.2054 73.328C81.9824 73.105 81.8708 72.8401 81.8708 72.5334V65.8007C81.8708 65.4941 81.9824 65.2292 82.2054 65.0062C82.4284 64.7831 82.6933 64.6716 82.9999 64.6716Z" fill="#F7F8F7"/>
<path d="M113.744 64.6716H121.314C121.62 64.6716 121.885 64.7831 122.108 65.0062C122.331 65.2292 122.443 65.4941 122.443 65.8007V77.2171L129.51 65.6334C129.872 64.9922 130.444 64.6716 131.224 64.6716H137.832C138.138 64.6716 138.403 64.7831 138.626 65.0062C138.849 65.2292 138.961 65.4941 138.961 65.8007V92.8153C138.961 93.1219 138.849 93.3868 138.626 93.6098C138.403 93.8328 138.138 93.9444 137.832 93.9444H130.263C129.956 93.9444 129.691 93.8328 129.468 93.6098C129.245 93.3868 129.134 93.1219 129.134 92.8153V82.3189L122.066 92.9825C121.648 93.6238 121.077 93.9444 120.352 93.9444H113.744C113.438 93.9444 113.173 93.8328 112.95 93.6098C112.727 93.3868 112.615 93.1219 112.615 92.8153V65.8007C112.615 65.4941 112.727 65.2292 112.95 65.0062C113.173 64.7831 113.438 64.6716 113.744 64.6716Z" fill="#F7F8F7"/>
<path d="M155.34 84.7444H159.605V65.8007C159.605 65.4941 159.717 65.2292 159.94 65.0062C160.163 64.7831 160.428 64.6716 160.734 64.6716H168.931C169.237 64.6716 169.502 64.7831 169.725 65.0062C169.948 65.2292 170.06 65.4941 170.06 65.8007V84.7444H173.154C173.461 84.7444 173.726 84.8559 173.949 85.0789C174.172 85.3019 174.283 85.5668 174.283 85.8735V98.0007C174.283 98.3074 174.172 98.5722 173.949 98.7953C173.726 99.0183 173.461 99.1298 173.154 99.1298H166.84C166.533 99.1298 166.268 99.0183 166.045 98.7953C165.822 98.5722 165.711 98.3074 165.711 98.0007V93.9444H146.014C145.708 93.9444 145.443 93.8328 145.22 93.6098C144.997 93.3868 144.885 93.1219 144.885 92.8153V65.8007C144.885 65.4662 144.997 65.2013 145.22 65.0062C145.443 64.7831 145.708 64.6716 146.014 64.6716H154.211C154.517 64.6716 154.782 64.7831 155.005 65.0062C155.228 65.2292 155.34 65.4941 155.34 65.8007V84.7444Z" fill="#F7F8F7"/>
<path d="M189.489 64.6716H198.563C199.567 64.6716 200.194 65.1316 200.445 66.0516L209.771 92.7316C209.799 92.8153 209.813 92.9547 209.813 93.1498C209.813 93.3171 209.715 93.4983 209.52 93.6935C209.353 93.8607 209.143 93.9444 208.893 93.9444H201.156C200.32 93.9444 199.776 93.5959 199.525 92.8989L198.522 90.1389H189.531L188.527 92.8989C188.276 93.5959 187.733 93.9444 186.896 93.9444H179.16C178.909 93.9444 178.686 93.8607 178.491 93.6935C178.323 93.4983 178.24 93.3171 178.24 93.1498C178.24 92.9547 178.254 92.8153 178.282 92.7316L187.607 66.0516C187.858 65.1316 188.485 64.6716 189.489 64.6716ZM191.663 81.9844H196.389L194.005 74.2062L191.663 81.9844Z" fill="#F7F8F7"/>
<path d="M65.6247 39.4212C64.0913 39.4212 62.9065 39.013 62.0701 38.1965C61.2537 37.3602 60.8455 36.0857 60.8455 34.3732C60.8455 32.8199 61.1641 31.3364 61.8013 29.9225C62.4584 28.5087 63.4043 27.3636 64.639 26.4875C65.8736 25.6113 67.3273 25.1732 69 25.1732L69.5078 25.203C69.1892 24.8247 68.7013 24.3069 68.0442 23.6498C67.3074 22.9329 66.7597 22.3255 66.4013 21.8277C66.0429 21.31 65.8636 20.7424 65.8636 20.1251C65.8636 19.3684 66.1225 18.8108 66.6403 18.4524C67.158 18.0939 67.9745 17.9147 69.0896 17.9147H74.5558C75.0736 17.9147 75.452 17.8849 75.6909 17.8251C75.9299 17.7654 76.1191 17.6459 76.2584 17.4667C76.3978 17.2675 76.5273 16.939 76.6468 16.481H77.961C77.6424 18.0342 77.2939 19.1892 76.9156 19.9459C76.5372 20.7026 76.0394 21.2204 75.4221 21.4991C74.8247 21.7779 73.9883 21.9173 72.913 21.9173H70.0455C69.926 21.9173 69.8264 21.9472 69.7468 22.0069C69.687 22.0468 69.6571 22.1364 69.6571 22.2758C69.6571 22.3554 69.8264 22.6143 70.1649 23.0524C70.9017 23.9485 71.529 24.9143 72.0468 25.9498C72.5645 26.9853 72.8234 28.2 72.8234 29.5939C72.8234 31.1074 72.5247 32.6307 71.9273 34.1641C71.3498 35.6775 70.5134 36.932 69.4182 37.9277C68.3229 38.9234 67.0584 39.4212 65.6247 39.4212ZM66.7597 36.7329C67.5762 36.7329 68.2533 36.2351 68.7909 35.2394C69.3286 34.2437 69.7169 33.1186 69.9558 31.8641C70.2147 30.6095 70.3442 29.6437 70.3442 28.9667C70.3442 28.21 70.2546 27.6922 70.0753 27.4134C69.8961 27.1346 69.6074 26.9952 69.2091 26.9952C68.3329 26.9952 67.5961 27.4732 66.9987 28.429C66.4013 29.3849 65.9533 30.4701 65.6545 31.6849C65.3558 32.8996 65.2065 33.8455 65.2065 34.5225C65.2065 35.3788 65.316 35.9662 65.5351 36.2849C65.774 36.5836 66.1823 36.7329 66.7597 36.7329Z" fill="black"/>
<path d="M76.7569 39.481C75.6218 39.481 74.676 39.0926 73.9192 38.316C73.1625 37.5394 72.7842 36.3247 72.7842 34.6719C72.7842 33.1983 73.0729 31.655 73.6504 30.042C74.2478 28.4091 75.124 27.0351 76.279 25.9199C77.4539 24.7849 78.8478 24.2173 80.4608 24.2173C81.2773 24.2173 81.8846 24.3567 82.2829 24.6355C82.6811 24.9143 82.8803 25.2827 82.8803 25.7407V25.9498L83.2089 24.3667H87.5102L85.3595 34.5225C85.2798 34.8212 85.24 35.1398 85.24 35.4784C85.24 36.3346 85.6482 36.7628 86.4647 36.7628C87.0223 36.7628 87.5002 36.5039 87.8985 35.9862C88.3166 35.4684 88.6452 34.7913 88.8842 33.955H90.1387C89.4019 36.1056 88.4859 37.5693 87.3907 38.3459C86.3153 39.1026 85.2301 39.481 84.1348 39.481C83.2985 39.481 82.6214 39.252 82.1037 38.7939C81.6058 38.316 81.3071 37.629 81.2076 36.7329C80.6301 37.5494 79.9829 38.2165 79.266 38.7342C78.569 39.232 77.7327 39.481 76.7569 39.481ZM78.6985 36.5836C79.1963 36.5836 79.6842 36.3546 80.1621 35.8965C80.6599 35.4186 80.9985 34.7714 81.1777 33.955L82.6114 27.2043C82.6114 26.9455 82.5119 26.6965 82.3127 26.4576C82.1136 26.1987 81.805 26.0693 81.3868 26.0693C80.5902 26.0693 79.8734 26.5372 79.2361 27.4732C78.5989 28.3892 78.1011 29.5043 77.7426 30.8186C77.3842 32.113 77.205 33.258 77.205 34.2537C77.205 35.2494 77.3444 35.8866 77.6231 36.1654C77.9218 36.4442 78.2803 36.5836 78.6985 36.5836Z" fill="black"/>
<path d="M100.694 39.481C99.3397 39.481 98.2644 39.1424 97.4679 38.4654C96.6913 37.7883 96.3029 36.8524 96.3029 35.6576C96.3029 35.0602 96.3726 34.4926 96.512 33.955L96.9003 32.1329H93.5848L92.0614 39.3017H87.7601L90.9263 24.3667H95.2276L93.9432 30.3407H97.3185L98.6328 24.3667H102.635L101.59 29.2056C102.227 28.9468 102.755 28.7875 103.173 28.7277C103.611 28.6481 104.079 28.6082 104.577 28.6082C105.772 28.6082 106.708 28.9567 107.385 29.6537C108.082 30.3507 108.43 31.3264 108.43 32.581C108.43 33.5368 108.151 34.5524 107.594 35.6277C107.056 36.6831 106.2 37.5892 105.025 38.3459C103.87 39.1026 102.426 39.481 100.694 39.481ZM101.59 36.942C102.088 36.942 102.556 36.7229 102.994 36.2849C103.452 35.8468 103.82 35.2991 104.099 34.642C104.378 33.9849 104.517 33.3576 104.517 32.7602C104.517 32.1628 104.378 31.6948 104.099 31.3563C103.82 30.9978 103.422 30.8186 102.904 30.8186C102.685 30.8186 102.377 30.8784 101.978 30.9978C101.6 31.1173 101.321 31.2368 101.142 31.3563L100.395 34.881C100.335 35.0403 100.306 35.3191 100.306 35.7173C100.306 36.5338 100.734 36.942 101.59 36.942Z" fill="black"/>
<path d="M111.099 39.481C110.143 39.481 109.366 39.1823 108.769 38.5849C108.191 37.9875 107.903 37.0913 107.903 35.8965C107.903 35.3987 107.982 34.7515 108.142 33.955L110.173 24.3667H114.474L112.323 34.5225C112.264 34.8212 112.234 35.1 112.234 35.3589C112.234 36.1753 112.532 36.5836 113.13 36.5836C113.687 36.5836 114.165 36.3546 114.564 35.8965C114.962 35.4186 115.281 34.7714 115.519 33.955L117.551 24.3667H121.852L119.701 34.5225C119.622 34.8212 119.582 35.1398 119.582 35.4784C119.582 35.8766 119.671 36.1654 119.851 36.3446C120.05 36.5039 120.368 36.5836 120.806 36.5836C121.703 36.5836 122.38 35.9762 122.838 34.7615C123.316 33.5268 123.724 31.9935 124.062 30.1615L124.242 29.2355L125.257 24.3667H129.558L128.393 29.9225C128.334 30.2212 128.304 30.5 128.304 30.7589C128.304 31.5753 128.603 31.9836 129.2 31.9836C129.777 31.9836 130.275 31.7446 130.693 31.2667C131.132 30.7888 131.43 30.1515 131.59 29.355L132.635 24.3667H136.936L134.786 34.5225C134.706 34.8212 134.666 35.1398 134.666 35.4784C134.666 35.8766 134.756 36.1654 134.935 36.3446C135.134 36.5039 135.453 36.5836 135.891 36.5836C136.448 36.5836 136.926 36.3446 137.325 35.8667C137.743 35.3887 138.071 34.7515 138.31 33.955H139.565C138.828 36.1056 137.912 37.5693 136.817 38.3459C135.742 39.1026 134.656 39.481 133.561 39.481C132.605 39.481 131.829 39.1823 131.231 38.5849C130.654 37.9875 130.365 37.0913 130.365 35.8965C130.365 35.3987 130.445 34.7515 130.604 33.955L130.753 33.2082C130.176 33.8455 129.588 34.2836 128.991 34.5225C128.393 34.7615 127.786 34.881 127.169 34.881C125.994 34.881 125.128 34.4628 124.57 33.6264C124.013 35.3987 123.226 36.8225 122.21 37.8978C121.215 38.9533 119.97 39.481 118.477 39.481C117.62 39.481 116.933 39.242 116.416 38.7641C115.918 38.2862 115.619 37.5792 115.519 36.6433C114.842 37.7385 114.126 38.4853 113.369 38.8836C112.632 39.2818 111.875 39.481 111.099 39.481Z" fill="black"/>
<path d="M149.684 39.481C148.489 39.481 147.583 39.1922 146.966 38.6147C146.368 38.0173 146.07 37.2009 146.07 36.1654C146.07 35.8866 146.139 35.329 146.279 34.4926C146.378 33.9948 146.428 33.6065 146.428 33.3277C146.428 32.3719 146.05 31.8939 145.293 31.8939C145.034 31.8939 144.785 31.9736 144.546 32.1329C144.327 32.2723 143.939 32.561 143.381 32.9991L142.067 39.3017H137.766L140.962 24.3667H145.263L143.979 30.281C145.333 28.6879 146.408 27.4732 147.205 26.6368C148.001 25.8004 148.728 25.1732 149.385 24.755C150.062 24.3169 150.719 24.0978 151.357 24.0978C152.591 24.0978 153.209 24.755 153.209 26.0693C153.209 26.6667 153.039 27.1446 152.701 27.503C152.382 27.8416 151.924 28.0108 151.327 28.0108C150.769 28.0108 150.351 27.8615 150.072 27.5628C149.793 27.2442 149.664 26.8857 149.684 26.4875C149.306 26.7264 148.967 26.9952 148.668 27.2939C148.37 27.5926 148.041 27.981 147.683 28.4589C147.264 29.0165 146.856 29.4944 146.458 29.8926C146.856 29.813 147.274 29.7732 147.712 29.7732C148.748 29.7732 149.475 30.0022 149.893 30.4602C150.331 30.9182 150.55 31.6152 150.55 32.5511C150.55 32.8299 150.49 33.2879 150.371 33.9251C150.251 34.6022 150.192 35.1199 150.192 35.4784C150.192 36.2152 150.59 36.5836 151.386 36.5836C151.944 36.5836 152.382 36.3944 152.701 36.016C153.039 35.6377 153.428 34.9507 153.866 33.955H155.12C153.866 37.639 152.054 39.481 149.684 39.481Z" fill="black"/>
<path d="M158.047 39.481C156.912 39.481 155.966 39.0926 155.209 38.316C154.452 37.5394 154.074 36.3247 154.074 34.6719C154.074 33.1983 154.363 31.655 154.94 30.042C155.538 28.4091 156.414 27.0351 157.569 25.9199C158.744 24.7849 160.138 24.2173 161.751 24.2173C162.567 24.2173 163.175 24.3567 163.573 24.6355C163.971 24.9143 164.17 25.2827 164.17 25.7407V25.9498L164.499 24.3667H168.8L166.649 34.5225C166.57 34.8212 166.53 35.1398 166.53 35.4784C166.53 35.8766 166.62 36.1654 166.799 36.3446C166.998 36.5039 167.317 36.5836 167.755 36.5836C168.033 36.5836 168.252 36.5437 168.412 36.4641C167.974 37.5792 167.555 38.3658 167.157 38.8238C166.759 39.2619 166.181 39.481 165.425 39.481C164.608 39.481 163.941 39.242 163.423 38.7641C162.926 38.2662 162.617 37.5792 162.497 36.703C161.283 38.555 159.799 39.481 158.047 39.481ZM159.988 36.5836C160.486 36.5836 160.974 36.3546 161.452 35.8965C161.95 35.4186 162.288 34.7714 162.468 33.955L163.901 27.2043C163.901 26.9455 163.802 26.6965 163.603 26.4576C163.404 26.1987 163.095 26.0693 162.677 26.0693C161.88 26.0693 161.163 26.5372 160.526 27.4732C159.889 28.3892 159.391 29.5043 159.033 30.8186C158.674 32.113 158.495 33.258 158.495 34.2537C158.495 35.2494 158.634 35.8866 158.913 36.1654C159.212 36.4442 159.57 36.5836 159.988 36.5836Z" fill="black"/>
</svg>
